<svg xmlns="http://www.w3.org/2000/svg" width="960" height="776" viewBox="0 0 960 776">
<style>
text{font-family:Arial,Helvetica,sans-serif;fill:#111}.title{font-size:22px;font-weight:700;text-anchor:middle}.subtitle{font-size:12px;text-anchor:middle}.label{font-size:14px;text-anchor:end}.label-small{font-size:11px;text-anchor:end}.tick{font-size:11px;text-anchor:middle}.axis{font-size:13px;text-anchor:middle;font-weight:600}.value{font-size:11px}.pvalue{font-size:10px}.grid{stroke:#ddd;stroke-width:1}.zero{stroke:#555;stroke-width:1.5}.interval{stroke:#111;stroke-width:2}.cap{stroke:#111;stroke-width:1.5}.point{fill:#111;stroke:#111}.point-open{fill:#fff;stroke:#111;stroke-width:1.5}
</style>
<text class="title" x="480" y="34">Cliff's delta frente al baseline</text>
<text class="subtitle" x="480" y="58">IC bootstrap 95%; * indica Holm ajustado &lt; 0.05; revision 8ba7a131</text>
<line class="grid" x1="330.00" y1="72" x2="330.00" y2="728"/>
<text class="tick" x="330.00" y="748">-1.0</text>
<line class="grid" x1="460.00" y1="72" x2="460.00" y2="728"/>
<text class="tick" x="460.00" y="748">-0.5</text>
<line class="zero" x1="590.00" y1="72" x2="590.00" y2="728"/>
<text class="tick" x="590.00" y="748">0.0</text>
<line class="grid" x1="720.00" y1="72" x2="720.00" y2="728"/>
<text class="tick" x="720.00" y="748">0.5</text>
<line class="grid" x1="850.00" y1="72" x2="850.00" y2="728"/>
<text class="tick" x="850.00" y="748">1.0</text>
<text class="label-small" x="316" y="96.00">follower caído / throughput</text>
<line class="interval" x1="476.18" y1="92.00" x2="628.13" y2="92.00"/>
<circle class="point-open" cx="550.71" cy="92.00" r="4.5"/>
<text class="pvalue" x="858.00" y="96.00">pH=1.000</text>
<text class="label-small" x="316" y="130.00">follower caído / p50</text>
<line class="interval" x1="526.44" y1="126.00" x2="683.02" y2="126.00"/>
<circle class="point-open" cx="605.60" cy="126.00" r="4.5"/>
<text class="pvalue" x="858.00" y="130.00">pH=1.000</text>
<text class="label-small" x="316" y="164.00">follower caído / p95</text>
<line class="interval" x1="525.87" y1="160.00" x2="683.60" y2="160.00"/>
<circle class="point-open" cx="606.18" cy="160.00" r="4.5"/>
<text class="pvalue" x="858.00" y="164.00">pH=1.000</text>
<text class="label-small" x="316" y="198.00">follower caído / p99</text>
<line class="interval" x1="510.27" y1="194.00" x2="668.00" y2="194.00"/>
<circle class="point-open" cx="589.42" cy="194.00" r="4.5"/>
<text class="pvalue" x="858.00" y="198.00">pH=1.000</text>
<text class="label-small" x="316" y="232.00">follower caído / inciertas</text>
<line class="interval" x1="572.67" y1="228.00" x2="700.36" y2="228.00"/>
<circle class="point-open" cx="637.09" cy="228.00" r="4.5"/>
<text class="pvalue" x="858.00" y="232.00">pH=1.000</text>
<text class="label-small" x="316" y="266.00">follower caído / omitidas</text>
<line class="interval" x1="520.67" y1="262.00" x2="624.67" y2="262.00"/>
<circle class="point-open" cx="572.67" cy="262.00" r="4.5"/>
<text class="pvalue" x="858.00" y="266.00">pH=1.000</text>
<text class="label-small" x="316" y="300.00">leader caído / throughput *</text>
<line class="interval" x1="347.33" y1="296.00" x2="449.02" y2="296.00"/>
<circle class="point" cx="392.40" cy="296.00" r="4.5"/>
<text class="pvalue" x="858.00" y="300.00">pH=0.001</text>
<text class="label-small" x="316" y="334.00">leader caído / p50</text>
<line class="interval" x1="514.89" y1="330.00" x2="670.31" y2="330.00"/>
<circle class="point-open" cx="592.89" cy="330.00" r="4.5"/>
<text class="pvalue" x="858.00" y="334.00">pH=1.000</text>
<text class="label-small" x="316" y="368.00">leader caído / p95 *</text>
<line class="interval" x1="692.27" y1="364.00" x2="803.78" y2="364.00"/>
<circle class="point" cx="752.93" cy="364.00" r="4.5"/>
<text class="pvalue" x="858.00" y="368.00">pH=<0.001</text>
<text class="label-small" x="316" y="402.00">leader caído / p99 *</text>
<line class="interval" x1="716.53" y1="398.00" x2="817.64" y2="398.00"/>
<circle class="point" cx="772.00" cy="398.00" r="4.5"/>
<text class="pvalue" x="858.00" y="402.00">pH=<0.001</text>
<text class="label-small" x="316" y="436.00">leader caído / inciertas *</text>
<line class="interval" x1="738.49" y1="432.00" x2="837.87" y2="432.00"/>
<circle class="point" cx="794.24" cy="432.00" r="4.5"/>
<text class="pvalue" x="858.00" y="436.00">pH=0.003</text>
<text class="label-small" x="316" y="470.00">leader caído / omitidas</text>
<line class="interval" x1="564.00" y1="466.00" x2="685.33" y2="466.00"/>
<circle class="point-open" cx="624.67" cy="466.00" r="4.5"/>
<text class="pvalue" x="858.00" y="470.00">pH=1.000</text>
<text class="label-small" x="316" y="504.00">partición de leader / throughput *</text>
<line class="interval" x1="342.71" y1="500.00" x2="429.96" y2="500.00"/>
<circle class="point" cx="380.84" cy="500.00" r="4.5"/>
<text class="pvalue" x="858.00" y="504.00">pH=<0.001</text>
<text class="label-small" x="316" y="538.00">partición de leader / p50</text>
<line class="interval" x1="478.49" y1="534.00" x2="629.87" y2="534.00"/>
<circle class="point-open" cx="553.02" cy="534.00" r="4.5"/>
<text class="pvalue" x="858.00" y="538.00">pH=1.000</text>
<text class="label-small" x="316" y="572.00">partición de leader / p95</text>
<line class="interval" x1="539.16" y1="568.00" x2="691.69" y2="568.00"/>
<circle class="point-open" cx="617.16" cy="568.00" r="4.5"/>
<text class="pvalue" x="858.00" y="572.00">pH=1.000</text>
<text class="label-small" x="316" y="606.00">partición de leader / p99</text>
<line class="interval" x1="552.44" y1="602.00" x2="704.40" y2="602.00"/>
<circle class="point-open" cx="629.29" cy="602.00" r="4.5"/>
<text class="pvalue" x="858.00" y="606.00">pH=1.000</text>
<text class="label-small" x="316" y="640.00">partición de leader / inciertas *</text>
<line class="interval" x1="754.96" y1="636.00" x2="840.18" y2="636.00"/>
<circle class="point" cx="803.20" cy="636.00" r="4.5"/>
<text class="pvalue" x="858.00" y="640.00">pH=0.007</text>
<text class="label-small" x="316" y="674.00">partición de leader / omitidas</text>
<line class="interval" x1="538.00" y1="670.00" x2="642.00" y2="670.00"/>
<circle class="point-open" cx="590.00" cy="670.00" r="4.5"/>
<text class="pvalue" x="858.00" y="674.00">pH=1.000</text>
<text class="axis" x="590" y="772">Cliff's delta</text>
</svg>
