<svg xmlns="http://www.w3.org/2000/svg" width="960" height="400" viewBox="0 0 960 400">
<style>
text{font-family:Arial,Helvetica,sans-serif;fill:#111}.title{font-size:22px;font-weight:700;text-anchor:middle}.subtitle{font-size:12px;text-anchor:middle}.label{font-size:14px;text-anchor:end}.label-small{font-size:11px;text-anchor:end}.tick{font-size:11px;text-anchor:middle}.axis{font-size:13px;text-anchor:middle;font-weight:600}.value{font-size:11px}.pvalue{font-size:10px}.grid{stroke:#ddd;stroke-width:1}.zero{stroke:#555;stroke-width:1.5}.interval{stroke:#111;stroke-width:2}.cap{stroke:#111;stroke-width:1.5}.point{fill:#111;stroke:#111}.point-open{fill:#fff;stroke:#111;stroke-width:1.5}
</style>
<text class="title" x="480" y="34">Latencia p99 por escenario</text>
<text class="subtitle" x="480" y="58">mediana e IQR, n=30 por escenario, revision 8ba7a131</text>
<line class="grid" x1="220.00" y1="72" x2="220.00" y2="342"/>
<text class="tick" x="220.00" y="364">1841</text>
<line class="grid" x1="390.00" y1="72" x2="390.00" y2="342"/>
<text class="tick" x="390.00" y="364">2600</text>
<line class="grid" x1="560.00" y1="72" x2="560.00" y2="342"/>
<text class="tick" x="560.00" y="364">3358</text>
<line class="grid" x1="730.00" y1="72" x2="730.00" y2="342"/>
<text class="tick" x="730.00" y="364">4117</text>
<line class="grid" x1="900.00" y1="72" x2="900.00" y2="342"/>
<text class="tick" x="900.00" y="364">4875</text>
<text class="label" x="202" y="97.00">sin fallas</text>
<line class="interval" x1="318.79" y1="92.00" x2="532.59" y2="92.00"/>
<line class="cap" x1="318.79" y1="84.00" x2="318.79" y2="100.00"/>
<line class="cap" x1="532.59" y1="84.00" x2="532.59" y2="100.00"/>
<circle class="point" cx="410.71" cy="92.00" r="5"/>
<text class="value" x="420.71" y="82.00">2692</text>
<text class="label" x="202" y="155.00">follower caído</text>
<line class="interval" x1="285.81" y1="150.00" x2="687.87" y2="150.00"/>
<line class="cap" x1="285.81" y1="142.00" x2="285.81" y2="158.00"/>
<line class="cap" x1="687.87" y1="142.00" x2="687.87" y2="158.00"/>
<circle class="point" cx="382.07" cy="150.00" r="5"/>
<text class="value" x="392.07" y="140.00">2564</text>
<text class="label" x="202" y="213.00">leader caído</text>
<line class="interval" x1="522.91" y1="208.00" x2="834.19" y2="208.00"/>
<line class="cap" x1="522.91" y1="200.00" x2="522.91" y2="216.00"/>
<line class="cap" x1="834.19" y1="200.00" x2="834.19" y2="216.00"/>
<circle class="point" cx="759.03" cy="208.00" r="5"/>
<text class="value" x="769.03" y="198.00">4246</text>
<text class="label" x="202" y="271.00">partición de leader</text>
<line class="interval" x1="333.24" y1="266.00" x2="575.59" y2="266.00"/>
<line class="cap" x1="333.24" y1="258.00" x2="333.24" y2="274.00"/>
<line class="cap" x1="575.59" y1="258.00" x2="575.59" y2="274.00"/>
<circle class="point" cx="485.63" cy="266.00" r="5"/>
<text class="value" x="495.63" y="256.00">3026</text>
<text class="axis" x="560" y="392">ms</text>
</svg>
